PathFileType	4	(X/Y/Z)	A12_1_OpenSim.trc																																																																																																																						
DataRate	CameraRate	NumFrames	NumMarkers	Units	OrigDataRate	OrigDataStartFrame	OrigNumFrames																																																																																																																		
100	100	5	40	mm	100	1501	3000																																																																																																																		
Frame#	Time	R.ASIS			R.PSIS			S2			L.PSIS			L.ASIS			R.TH1			R.TH2			R.TH3			R.MKnee			R.Knee			R.SH1			R.SH2			R.SH3			R.SH4			R.Ankle			R.MAnkle			R.Heel			R.MT5			R.MT1			L.TH1			L.TH2			L.TH3			L.TH4			L.MKnee			L.Knee			L.SH1			L.SH2			L.SH3			L.Ankle			L.MAnkle			L.Heel			L.MT5			L.MT1			R.Acr			L.Acr			C7			T10			Clav			Sternum			R.Back		
		X1	Y1	Z1	X2	Y2	Z2	X3	Y3	Z3	X4	Y4	Z4	X5	Y5	Z5	X6	Y6	Z6	X7	Y7	Z7	X8	Y8	Z8	X9	Y9	Z9	X10	Y10	Z10	X11	Y11	Z11	X12	Y12	Z12	X13	Y13	Z13	X14	Y14	Z14	X15	Y15	Z15	X16	Y16	Z16	X17	Y17	Z17	X18	Y18	Z18	X19	Y19	Z19	X20	Y20	Z20	X21	Y21	Z21	X22	Y22	Z22	X23	Y23	Z23	X24	Y24	Z24	X25	Y25	Z25	X26	Y26	Z26	X27	Y27	Z27	X28	Y28	Z28	X29	Y29	Z29	X30	Y30	Z30	X31	Y31	Z31	X32	Y32	Z32	X33	Y33	Z33	X34	Y34	Z34	X35	Y35	Z35	X36	Y36	Z36	X37	Y37	Z37	X38	Y38	Z38	X39	Y39	Z39	X40	Y40	Z40
1501	15	957.2258	1053.8904	-430.4655	772.6134	1053.2119	-529.7725	767.0763	1050.8442	-575.4339	774.9447	1060.1199	-625.0106	954.7975	1066.1769	-719.8498	998.9117	726.919	-418.9158	922.0085	702.2525	-406.6053	954.9932	597.4302	-416.5952	1002.8681	487.5931	-541.9927	993.7256	494.2221	-422.3448	886.0118	372.4707	-419.822	802.2534	298.3577	-438.8018	831.6908	434.4405	-411.9355	748.1453	356.9181	-420.0189	636.7111	253.0877	-429.8625	676.4164	226.9355	-518.944	578.2262	283.1165	-493.147	655.3425	134.6824	-395.8711	688.9755	91.8247	-479.5701	1008.483	771.7279	-738.8944	1026.2804	665.1876	-724.2069	926.837	752.9587	-747.056	947.8281	647.523	-725.3178	1028.4906	516.4662	-593.608	1026.5463	518.4799	-704.0753	1031.0681	382.4552	-716.8403	949.3038	387.1577	-722.8552	945.3221	277.8594	-712.3029	981.629	80.7394	-702.7788	1016.3262	91.8345	-605.1482	918.7687	42.5275	-644.2927	1087.9232	32.2851	-723.8415	1133.1639	44.1139	-626.9292	878.6479	1447.2988	-409.1073	861.4351	1440.4739	-740.4488	813.1924	1486.9209	-575.53	794.2201	1160.2853	-571.5616	952.4376	1396.6573	-578.6265	988.0505	1255.2435	-569.9916	739.1647	1384.1975	-489.7599
1502	15.01	956.7651	1056.0308	-431.3551	772.3308	1055.427	-530.6044	766.8367	1053.0776	-576.2813	774.7876	1062.3179	-625.8495	954.8005	1067.726	-720.602	1003.3528	731.6135	-419.289	926.9381	705.1508	-407.3372	962.465	601.1403	-417.02	1012.9855	492.3194	-542.5758	1003.4882	498.777	-422.7869	897.0427	376.3295	-420.7036	814.27	301.187	-439.405	842.1095	437.8091	-414.0609	759.4034	359.4213	-421.9208	649.4189	254.009	-431.5722	689.7427	228.3414	-520.5822	590.2114	282.1458	-495.0013	671.0053	136.5259	-396.8291	705.6647	93.9174	-480.2178	1005.6318	771.9109	-739.4692	1022.1094	665.2044	-724.9009	923.7951	754.1848	-747.6057	943.4691	648.518	-725.7798	1022.4875	516.303	-594.1274	1020.3271	518.3386	-704.6883	1023.1543	382.2862	-717.2527	941.4494	387.987	-723.3031	936.1309	278.728	-712.7383	969.9117	80.9936	-702.813	1004.6554	91.9748	-605.1619	906.9448	42.896	-644.4006	1075.7365	32.3642	-724.0886	1121.2534	44.1833	-627.0158	877.5081	1448.566	-409.2817	861.7466	1442.4614	-740.8351	813.0507	1488.6736	-576.0207	793.9316	1162.136	-572.796	952.2382	1398.3727	-578.5923	987.812	1256.965	-570.0338	738.4601	1385.8035	-490.9827
1503	15.02	956.3577	1058.2823	-432.2544	772.0116	1057.6682	-531.2423	766.5261	1055.307	-576.9239	774.5162	1064.4917	-626.4977	954.6189	1069.2715	-721.3155	1007.4763	736.4206	-419.3751	931.5326	708.2841	-407.8379	969.4215	605.0862	-417.2003	1022.6196	497.229	-542.8997	1012.6899	503.4801	-423.0244	908.0741	379.7301	-421.3424	826.7357	303.1157	-439.7479	852.2062	440.4061	-416.0732	770.8098	360.7235	-423.6677	662.8951	252.977	-433.0344	703.9356	228.1793	-522.0463	602.8638	279.0307	-496.5626	687.9802	136.5019	-397.7303	723.8556	94.5844	-480.9313	1002.5159	772.0854	-740.0711	1017.6644	665.2027	-725.6568	920.5154	755.4219	-748.1531	938.8577	649.5162	-726.289	1016.3007	516.1753	-594.6929	1013.7636	518.2069	-705.3527	1015.0227	382.1618	-717.7239	933.3757	388.8094	-723.7926	926.7931	279.6058	-713.2024	958.194	81.2553	-702.8784	992.9915	92.1148	-605.1809	895.148	43.2783	-644.4681	1063.5813	32.4289	-724.3099	1109.3328	44.2431	-627.1064	876.3099	1449.9204	-409.3925	861.9849	1444.4976	-741.1511	812.8743	1490.4181	-576.4511	793.5696	1164.0089	-573.9185	951.998	1400.1047	-578.5202	987.5808	1258.7173	-570.0058	737.7397	1387.4207	-492.1326
1504	15.03	955.9899	1060.5719	-433.1607	771.6428	1059.8348	-531.6914	766.1309	1057.4354	-577.3682	774.1202	1066.5568	-626.9599	954.2363	1070.7836	-722.0117	1011.3041	741.2413	-419.1874	935.8117	711.5572	-408.1108	975.8548	609.1521	-417.1628	1031.7075	502.2188	-542.9802	1021.3335	508.2164	-423.0653	919.0996	382.5991	-421.7598	839.6098	304.1449	-439.9039	862.0134	442.1548	-417.8327	782.3784	360.8005	-425.169	677.1077	250.1296	-434.2228	718.9578	226.5472	-523.2999	616.227	273.9395	-497.8391	706.1123	134.762	-398.5356	743.3756	93.9225	-481.6459	999.1724	772.2377	-740.6608	1012.9984	665.184	-726.4173	917.0322	756.6454	-748.6773	934.0417	650.4991	-726.8103	1009.9402	516.0795	-595.2685	1006.8884	518.0854	-706.0203	1006.6654	382.0718	-718.2044	925.0839	389.6275	-724.2391	917.2911	280.4958	-713.6228	946.4808	81.5292	-702.9464	981.3263	92.2448	-605.1737	883.3697	43.6773	-644.4821	1051.4745	32.4772	-724.4884	1097.3965	44.2897	-627.1885	875.0963	1451.3311	-409.4413	862.1959	1446.5494	-741.3894	812.6781	1492.127	-576.8204	793.1321	1165.8655	-574.9227	951.7269	1401.817	-578.4235	987.3676	1260.4606	-569.9155	737.0257	1389.0326	-493.1914
1505	15.04	955.6459	1062.8236	-434.0686	771.2143	1061.8428	-531.9631	765.6442	1059.3851	-577.6279	773.5968	1068.4425	-627.2473	953.6475	1072.2241	-722.7079	1014.8484	745.9814	-418.7543	939.795	714.87	-408.1605	981.7699	613.2275	-416.9402	1040.1814	507.1831	-542.8411	1029.4137	512.886	-422.9295	930.0974	384.9106	-421.975	852.8419	304.3256	-439.9285	871.5461	443.0329	-419.2472	794.1081	359.6871	-426.3687	692.0289	245.6336	-435.1297	734.777	223.5717	-524.3116	630.3279	267.0304	-498.8523	725.3084	131.518	-399.2	764.1233	92.0969	-482.2877	995.6385	772.3527	-741.2003	1008.1582	665.149	-727.1235	913.3726	757.8297	-749.155	929.0621	651.4512	-727.3025	1003.3931	515.9949	-595.8198	999.7421	517.9733	-706.6529	998.0894	382.008	-718.6444	916.5963	390.4432	-724.5892	907.6272	281.3993	-713.9523	934.7708	81.8169	-702.9952	969.651	92.3601	-605.1204	871.5862	44.1023	-644.444	1039.4251	32.5059	-724.6101	1085.4441	44.3204	-627.2507	873.915	1452.7517	-409.4342	862.4157	1448.5757	-741.5452	812.474	1493.7751	-577.1258	792.6223	1167.6663	-575.8055	951.4359	1403.4714	-578.3124	987.1606	1262.1499	-569.7851	736.3373	1390.6211	-494.142
